<svg width="1920" height="991" viewBox="0 0 1920 991" fill="none" xmlns="http://www.w3.org/2000/svg">
<g clip-path="url(#clip0_9_469)">
<path fill-rule="evenodd" clip-rule="evenodd" d="M20.388 410.553H16.722V464.309H0V694.362H16.722V767.012H20.388V694.362H37.108V464.31H20.388V410.553Z" fill="#70CCD7" fill-opacity="0.2"/>
<path fill-rule="evenodd" clip-rule="evenodd" d="M255.75 639.486H252.083V673.266H235.361V780.245H252.083V805.241H255.749V780.245H272.47V673.267H255.75V639.486Z" fill="#70CCD7" fill-opacity="0.2"/>
<path fill-rule="evenodd" clip-rule="evenodd" d="M79.228 505.903H75.562V539.685H58.84V646.664H75.562V671.662H79.228V646.664H95.948V539.685H79.228V505.903Z" fill="#70CCD7" fill-opacity="0.2"/>
<path fill-rule="evenodd" clip-rule="evenodd" d="M138.069 559.846H134.402V608.249H117.681V761.524H134.402V797.338H138.069V761.524H154.789V608.249H138.069V559.846Z" fill="#70CCD7" fill-opacity="0.2"/>
<path fill-rule="evenodd" clip-rule="evenodd" d="M314.59 755.045H310.923V772.352H294.202V846.412H310.922V869.799H314.589V846.412H331.31V772.352H314.59V755.045Z" fill="#70CCD7" fill-opacity="0.2"/>
<path fill-rule="evenodd" clip-rule="evenodd" d="M373.43 759.925H369.763V794.629H353.043V943.141H369.763V990.041H373.43V943.141H390.15V794.63H373.43V759.925Z" fill="#70CCD7" fill-opacity="0.2"/>
<path fill-rule="evenodd" clip-rule="evenodd" d="M667.631 485.409H663.964V520.112H647.244V668.624H663.964V715.522H667.631V668.624H684.353V520.112H667.63L667.631 485.409Z" fill="#70CCD7" fill-opacity="0.2"/>
<path fill-rule="evenodd" clip-rule="evenodd" d="M902.992 217.26H899.326V251.963H882.606V400.476H899.326V447.374H902.992V400.476H919.714V251.963H902.992V217.26Z" fill="#70CCD7" fill-opacity="0.2"/>
<path fill-rule="evenodd" clip-rule="evenodd" d="M1609.08 140.523H1605.41V175.225H1588.69V323.738H1605.41V370.636H1609.08V323.738H1625.8V175.225H1609.08V140.523Z" fill="#70CCD7" fill-opacity="0.2"/>
<path fill-rule="evenodd" clip-rule="evenodd" d="M785.311 297.616H781.645V332.317H764.925V480.83H781.645V527.729H785.311V480.83H802.034V332.317H785.31L785.311 297.616Z" fill="#70CCD7" fill-opacity="0.2"/>
<path fill-rule="evenodd" clip-rule="evenodd" d="M1020.67 285.418H1017.01V332.318H1000.29V480.83H1017.01V515.533H1020.67V480.83H1037.4V332.317H1020.67V285.418Z" fill="#70CCD7" fill-opacity="0.2"/>
<path fill-rule="evenodd" clip-rule="evenodd" d="M1138.35 412.671H1134.69V459.571H1117.97V608.083H1134.69V642.785H1138.35V608.083H1155.07V459.571H1138.35V412.671Z" fill="#70CCD7" fill-opacity="0.2"/>
<path fill-rule="evenodd" clip-rule="evenodd" d="M726.471 307.134H722.805V353.057H706.085V549.587H722.805V611.65H726.471V549.588H743.193V353.058H726.47V307.134H726.471Z" fill="#70CCD7" fill-opacity="0.2"/>
<path fill-rule="evenodd" clip-rule="evenodd" d="M1197.2 324.505H1193.53V370.428H1176.81V566.958H1193.53V629.022H1197.2V566.958H1213.92V370.428H1197.2V324.505Z" fill="#70CCD7" fill-opacity="0.2"/>
<path fill-rule="evenodd" clip-rule="evenodd" d="M432.27 695.612H428.604V718.759H411.882V817.81H428.604V849.091H432.27V817.811H448.99V718.759H432.27V695.612Z" fill="#70CCD7" fill-opacity="0.2"/>
<path fill-rule="evenodd" clip-rule="evenodd" d="M491.11 741.464H487.444V764.608H470.724V863.658H487.444V894.94H491.11V863.659H507.832V764.608H491.11V741.464Z" fill="#70CCD7" fill-opacity="0.2"/>
<path fill-rule="evenodd" clip-rule="evenodd" d="M608.79 480.83H605.124V503.975H588.404V603.026H605.124V634.306H608.791V603.026H625.512V503.976H608.791V480.831L608.79 480.83Z" fill="#70CCD7" fill-opacity="0.2"/>
<path fill-rule="evenodd" clip-rule="evenodd" d="M1079.51 404.092H1075.85V427.237H1059.13V526.288H1075.85V557.568H1079.51V526.288H1096.23V427.238H1079.52L1079.51 404.092Z" fill="#70CCD7" fill-opacity="0.2"/>
<path fill-rule="evenodd" clip-rule="evenodd" d="M1726.76 0H1723.09V30.2251H1706.37V159.575H1723.09V200.422H1726.76V159.575H1743.48V30.2251H1726.76V0Z" fill="#70CCD7" fill-opacity="0.2"/>
<path fill-rule="evenodd" clip-rule="evenodd" d="M1785.6 30.2251H1781.93V60.45H1765.21V189.8H1781.93V230.647H1785.6V189.8H1802.32V60.45H1785.6V30.2251Z" fill="#70CCD7" fill-opacity="0.2"/>
<path fill-rule="evenodd" clip-rule="evenodd" d="M1432.56 427.236H1428.89V450.382H1412.17V549.433H1428.89V580.713H1432.56V549.433H1449.28V450.383H1432.56V427.236Z" fill="#70CCD7" fill-opacity="0.2"/>
<path fill-rule="evenodd" clip-rule="evenodd" d="M1256.04 370.636H1252.37V387.254H1235.65V458.372H1252.37V480.831H1256.04V458.371H1272.76V387.254H1256.04V370.636Z" fill="#70CCD7" fill-opacity="0.2"/>
<path fill-rule="evenodd" clip-rule="evenodd" d="M1314.88 315.19H1311.21V338.34H1294.49V437.408H1311.21V468.694H1314.88V437.408H1331.6V338.34H1314.88V315.19Z" fill="#70CCD7" fill-opacity="0.2"/>
<path fill-rule="evenodd" clip-rule="evenodd" d="M1667.92 107.067H1664.25V123.685H1647.53V194.802H1664.25V217.26H1667.92V194.802H1684.64V123.685H1667.92V107.067Z" fill="#70CCD7" fill-opacity="0.2"/>
<path fill-rule="evenodd" clip-rule="evenodd" d="M1903.28 30.2251H1899.61V46.843H1882.89V117.961H1899.61V140.418H1903.28V117.961H1920V46.843H1903.28V30.2251Z" fill="#70CCD7" fill-opacity="0.2"/>
<path fill-rule="evenodd" clip-rule="evenodd" d="M1844.44 95.697H1840.77V112.316H1824.05V183.433H1840.77V205.892H1844.44V183.433H1861.16V112.316H1844.44L1844.44 95.697Z" fill="#70CCD7" fill-opacity="0.2"/>
<path fill-rule="evenodd" clip-rule="evenodd" d="M1550.24 242.518H1546.57V259.136H1529.85V330.253H1546.57V352.711H1550.24V330.253H1566.96V259.136H1550.24V242.518Z" fill="#70CCD7" fill-opacity="0.2"/>
<path fill-rule="evenodd" clip-rule="evenodd" d="M1373.72 391.94H1370.05V420.573H1353.33V543.1H1370.05V581.793H1373.72V543.1H1390.44V420.573H1373.72V391.94Z" fill="#70CCD7" fill-opacity="0.2"/>
<path fill-rule="evenodd" clip-rule="evenodd" d="M1491.4 282.85H1487.73V311.48H1471.01V434.009H1487.73V472.702H1491.4V434.009H1508.12V311.48H1491.4V282.85Z" fill="#70CCD7" fill-opacity="0.2"/>
<path fill-rule="evenodd" clip-rule="evenodd" d="M961.834 263.286H958.168V279.422H941.446V348.48H958.168V370.287H961.834V348.48H978.554V279.422H961.834V263.286Z" fill="#70CCD7" fill-opacity="0.2"/>
<path fill-rule="evenodd" clip-rule="evenodd" d="M844.153 255.58H840.487V278.724H823.765V377.776H840.487V409.056H844.153V377.776H860.873V278.724H844.153V255.58Z" fill="#70CCD7" fill-opacity="0.2"/>
<path fill-rule="evenodd" clip-rule="evenodd" d="M549.95 645.626H546.284V660.967H529.564V726.626H546.284V747.362H549.951V726.626H566.671V660.967H549.951L549.95 645.626Z" fill="#70CCD7" fill-opacity="0.2"/>
<path fill-rule="evenodd" clip-rule="evenodd" d="M196.91 534.85H193.243V559.847H176.52V666.825H193.242V700.607H196.908V666.825H213.628V559.847H196.908V534.85H196.91Z" fill="#70CCD7" fill-opacity="0.2"/>
</g>
<defs>
<clipPath id="clip0_9_469">
<rect width="1920" height="990.04" fill="white"/>
</clipPath>
</defs>
</svg>
